<svg xmlns="http://www.w3.org/2000/svg"><symbol id="backward-solid" viewBox="0 0 512 512"><!--! Font Awesome Pro 6.1.1 by @fontawesome - https://fontawesome.com License - https://fontawesome.com/license (Commercial License) Copyright 2022 Fonticons, Inc.--><path d="M459.5 71.41L288 214.31v83.45l171.5 142.9c20.6 17.04 52.5 2.64 52.5-25.56V96.03c0-27.37-31.9-41.75-52.5-24.62zm-256 0L11.44 231.4c-15.25 12.87-15.25 36.37 0 49.24l192 159.1c20.63 17.12 52.51 2.749 52.51-24.62V95.22c-.85-26.56-31.85-40.94-52.45-23.81z"/></symbol><symbol id="forward-solid" viewBox="0 0 512 512"><!--! Font Awesome Pro 6.1.1 by @fontawesome - https://fontawesome.com License - https://fontawesome.com/license (Commercial License) Copyright 2022 Fonticons, Inc.--><path d="M52.51 440.6l171.5-142.9v-83.4L52.51 71.41C31.88 54.28 0 68.66 0 96.03v319.9c0 27.37 31.88 41.77 52.51 24.67zm255.99 0l192-159.1c15.25-12.87 15.25-36.37 0-49.24l-192-159.1c-20.63-17.12-52.51-2.749-52.51 24.62v319.9c.01 25.62 31.91 40.02 52.51 22.92z"/></symbol><symbol id="plus-solid" viewBox="0 0 448 512"><!--! Font Awesome Pro 6.1.1 by @fontawesome - https://fontawesome.com License - https://fontawesome.com/license (Commercial License) Copyright 2022 Fonticons, Inc.--><path d="M432 256c0 17.69-14.33 32.01-32 32.01H256v144c0 17.69-14.33 31.99-32 31.99s-32-14.3-32-31.99v-144H48c-17.67 0-32-14.32-32-32.01s14.33-31.99 32-31.99h144v-144C192 62.32 206.33 48 224 48s32 14.32 32 32.01v144h144c17.7-.01 32 14.29 32 31.99z"/></symbol><symbol id="backward-step-solid" viewBox="0 0 320 512"><path d="M31.1 64.03c-17.67 0-31.1 14.33-31.1 32v319.9c0 17.67 14.33 32 32 32 17.67-.83 32-14.33 32-32.83V96.03c0-17.67-14.33-32-32.9-32zm236.4 7.38l-192 159.1C67.82 237.8 64 246.9 64 256c0 9.094 3.82 18.18 11.44 24.62l192 159.1c20.63 17.12 52.51 2.75 52.51-24.62V95.2c-.85-26.54-31.85-40.92-52.45-23.79z"/></symbol><symbol id="pause-solid" viewBox="0 0 320 512"><path d="M272 63.1h-32c-26.51 0-48 21.49-48 47.1v288c0 26.51 21.49 48 48 48l32 1.8c26.51 0 48-21.49 48-48V112c0-26.51-21.5-48.9-48-48.9zm-192 0H48c-26.51 0-48 21.49-48 48v288C0 426.5 21.49 448 48 448h32c26.51 0 48-21.49 48-48V112c0-26.51-21.5-48.9-48-48.9z"/></symbol><symbol id="forward-step-solid" viewBox="0 0 320 512"><path d="M287.1 447.1c17.67 0 31.1-14.33 31.1-32V96.03c0-17.67-14.33-32-32-32s-31.1 14.33-31.1 31.1v319.9c0 18.57 15.2 32.07 32 32.07zm-234.59-6.5l192-159.1c7.625-6.436 11.43-15.53 11.43-24.62 0-9.094-3.809-18.18-11.43-24.62l-192-159.1C31.88 54.28 0 68.66 0 96.03v319.9c0 27.37 31.88 41.77 52.51 24.67z"/></symbol><symbol id="play-solid" viewBox="0 0 384 512"><path d="M361 215c14.3 8.8 23 24.3 23 41s-8.7 32.2-23 40.1l-287.97 176c-14.82 9.9-33.37 10.3-48.51 1.8A48.02 48.02 0 0 1 0 432V80a48.02 48.02 0 0 1 24.52-41.87 48.019 48.019 0 0 1 48.51.91L361 215z"/></symbol><symbol id="arrow-rotate-right-solid" viewBox="0 0 512 512"><path d="M496 48v144c0 17.69-14.31 32-32 32H320c-17.69 0-32-14.31-32-32s14.31-32 32-32h63.39c-29.97-39.7-77.25-63.78-127.6-63.78C167.7 96.22 96 167.9 96 256s71.69 159.8 159.8 159.8c34.88 0 68.03-11.03 95.88-31.94 14.22-10.53 34.22-7.75 44.81 6.375 10.59 14.16 7.75 34.22-6.375 44.81-39.03 29.28-85.36 44.86-134.2 44.86C132.5 479.9 32 379.4 32 256S132.5 32.1 255.9 32.1c69.15 0 134 32.47 176.1 86.12V48c0-17.69 14.31-32 32-32s32 14.31 32 32z"/></symbol><symbol id="volume-xmark-solid" viewBox="0 0 576 512"><path d="M301.2 34.85c-11.5-5.188-25.02-3.122-34.44 5.253L131.8 160H48c-26.51 0-48 21.49-48 47.1v95.1c0 26.51 21.49 47.1 48 47.1h83.84l134.9 119.9a32.023 32.023 0 0 0 21.26 8.094 31.96 31.96 0 0 0 13.17-2.844c11.5-5.156 18.82-16.56 18.82-29.16V64c-.89-12.59-7.29-24-18.79-29.15zM513.9 255.1l47.03-47.03c9.375-9.375 9.375-24.56 0-33.94s-24.56-9.375-33.94 0L480 222.1 432.1 175c-9.375-9.375-24.56-9.375-33.94 0s-9.375 24.56 0 33.94l47.03 47.03L398.16 303c-9.375 9.375-9.375 24.56 0 33.94 9.373 9.373 24.56 9.381 33.94 0L480 289.9l47.03 47.03c9.373 9.373 24.56 9.381 33.94 0 9.375-9.375 9.375-24.56 0-33.94L513.9 255.1z"/></symbol><symbol id="volume-high-solid" viewBox="0 0 640 512"><path d="M412.6 182c-10.28-8.334-25.41-6.867-33.75 3.402-8.406 10.24-6.906 25.35 3.375 33.74C393.5 228.4 400 241.8 400 255.1c0 14.17-6.5 27.59-17.81 36.83-10.28 8.396-11.78 23.5-3.375 33.74 4.719 5.806 11.62 8.802 18.56 8.802 5.344 0 10.75-1.779 15.19-5.399C435.1 311.5 448 284.6 448 255.1s-12.9-54.7-35.4-73.1zm60.5-73.8c-10.22-8.334-25.34-6.898-33.78 3.34-8.406 10.24-6.906 25.35 3.344 33.74C476.6 172.1 496 213.3 496 255.1s-19.44 82.1-53.31 110.7c-10.25 8.396-11.75 23.5-3.344 33.74a23.962 23.962 0 0 0 18.56 8.771c5.375 0 10.75-1.779 15.22-5.431C518.2 366.9 544 313 544 255.1S518.2 145 473.1 108.2zm61.3-74.8c-10.22-8.334-25.34-6.867-33.78 3.34-8.406 10.24-6.906 25.35 3.344 33.74C559.9 116.3 592 183.9 592 255.1s-32.09 139.7-88.06 185.5c-10.25 8.396-11.75 23.5-3.344 33.74C505.3 481 512.2 484 519.2 484c5.375 0 10.75-1.779 15.22-5.431C601.5 423.6 640 342.5 640 255.1S601.5 88.34 534.4 33.4zm-233.2 1.58c-11.5-5.181-25.01-3.076-34.43 5.29L131.8 160.1H48c-26.51 0-48 21.48-48 47.96v95.92c0 26.48 21.49 47.96 48 47.96h83.84l134.9 119.8A32.167 32.167 0 0 0 288 479.8c4.438 0 8.959-.931 13.16-2.835A31.81 31.81 0 0 0 320 447.9V64.12c0-12.57-7.3-23.99-18.8-29.14z"/></symbol><symbol id="angles-down-solid" viewBox="0 0 384 512"><path d="M169.4 278.6c6.2 6.3 14.4 9.4 22.6 9.4s16.38-3.125 22.62-9.375l160-160c12.5-12.5 12.5-32.75 0-45.25s-32.75-12.5-45.25 0L192 210.8 54.63 73.38c-12.5-12.5-32.75-12.5-45.25 0s-12.5 32.75 0 45.25L169.4 278.6zm160-13.2L192 402.8 54.63 265.4c-12.5-12.5-32.75-12.5-45.25 0s-12.5 32.75 0 45.25l160 160C175.6 476.9 183.8 480 192 480s16.38-3.125 22.62-9.375l160-160c12.5-12.5 12.5-32.75 0-45.25s-32.72-12.475-45.22.025z"/></symbol></svg>